 http://www.torrentday.com - Your Key To The Scene.

 
http://www.torrentday.com :  Clean RAR Scene Releases!


Enjoy =)

...................................NFO:....................................

.
                                                     
                                                   
                                                         
                                                          
                                                           
                                                          
                                                          
                                                          
                                                           
                                                         
                                                          
                                                        
                                                      
                                     
                                                 
                                                   
                                             
                                              
                                                     
                                                      
                                                      
                                                      
                                                    
                                                     
                                                   
                                                     
                                                     
                                                      
                                                     
                                                      
                                                    
                 ARTiCHOKE                        
                                                
                      
                                                        
                                                      
                                                      
                                               
                                          
                                                   
                                            
                                                    
                                                       
                                                        
                                                      
                                                
                                                        
                                                 
                                              
                                                  
                                                
                                                  
                                        

      
                                
      SPRiNTER proudly presents...     
                                
      
 
 Philadelphia.Experiment.II.1993.DVDRip.XviD-SPRiNTER  http://www.imdb.com/title/tt0107819/
 Subtitles: N/A

 Date: 2010.03

 Director: Stephen Cornwell
 Plot: David Herdeg's participation in a failed 1943 experiment in radar invisibility has propelled him 40 years into the future. An aberration in his genetic makeup enabled him to pass through the portal of time. It has also made him sensitive to any alteration to the time continuum. Another disasterous experiment in 1993 sends a stealth aircraft through the time portal, into 1943 Germany. Simultaneously, Herdeg is pulled into the portal, and finds himself in the terrifying 1993 that resulted from a Nazi victory in World War II.
 Genre: Action | Adventure | Sci-Fi

 Cast

Brad Johnson	 ...	David Herdeg
Marjean Holden	 ...	Jess
Gerrit Graham	 ...	Dr. William Mailer / Friedrich Mahler
John Christian Graas	 ...	Benjamin Herdeg
Cyril O'Reilly	 ...	Decker
Geoffrey Blake	 ...	Logan
Lisa Robins	 ...	Scotch
David Wells	 ...	Pinstripes
Larry Cedar	 ...	Hank the Controller
Al Pugliese	 ...	Coach
James Greene	 ...	Professor Longstreet
Andrew Steel	 ...	Lieutenant
Allen Perada	 ...	Mahler's Double
Hank Stone	 ...	Gate PK
John Rixey Moore	 ...	General #1


      
                 
      Release notes     
                 
      

 Enjoy!


      
           
     Greetings    
           
      


NTX aAF FiCO HNR CiNEFiLE AEN HUMANiSM MOViERUSH


      
           
      Details     
           
      

Format                           : AVI
Format/Info                      : Audio Video Interleave
File size                        : 702 MiB
Duration                         : 1h 38mn
Overall bit rate                 : 997 Kbps
Writing application              : VirtualDubMod 1.5.10.2 (build 2540/release)
Writing library                  : VirtualDubMod build 2540/release

Video
ID                               : 0
Format                           : MPEG-4 Visual
Format profile                   : AdvancedSimple@L5
Format settings, BVOP            : Yes
Format settings, QPel            : No
Format settings, GMC             : No warppoints
Format settings, Matrix          : Default (H.263)
Codec ID                         : XVID
Codec ID/Hint                    : XviD
Duration                         : 1h 38mn
Bit rate                         : 846 Kbps
Width                            : 544 pixels
Height                           : 400 pixels
Display aspect ratio             : 4:3
Frame rate                       : 23.976 fps
Resolution                       : 24 bits
Colorimetry                      : 4:2:0
Scan type                        : Progressive
Bits/(Pixel*Frame)               : 0.162
Stream size                      : 595 MiB (85%)
Writing library                  : XviD 1.2.1 (UTC 2008-12-04)

Audio
ID                               : 1
Format                           : MPEG Audio
Format version                   : Version 1
Format profile                   : Layer 3
Codec ID                         : 55
Codec ID/Hint                    : MP3
Duration                         : 1h 38mn
Bit rate mode                    : Variable
Bit rate                         : 139 Kbps
Minimum bit rate                 : 128 Kbps
Channel(s)                       : 2 channels
Sampling rate                    : 48.0 KHz
Resolution                       : 16 bits
Stream size                      : 97.8 MiB (14%)
Alignment                        : Aligned on interleaves
Interleave, duration             : 24 ms (0.58 video frame)
Interleave, preload duration     : 132 ms
Writing library                  : LAME3.95 
Encoding settings                : -m j -V 4 -q 3 -lowpass 18 --vbr-old -b 128